<?xml version="1.0" encoding="utf-8"?>
<!-- Generator: Adobe Illustrator 24.0.2, SVG Export Plug-In . SVG Version: 6.00 Build 0)  -->
<svg version="1.1" id="Capa_1" xmlns="http://www.w3.org/2000/svg" xmlns:xlink="http://www.w3.org/1999/xlink" x="0px" y="0px"
	 viewBox="0 0 460.7 512" style="enable-background:new 0 0 460.7 512;" xml:space="preserve">
<style type="text/css">
	.st0{fill:#D3422A;}
</style>
<g>
	<path class="st0" d="M365.4,251.5h35.7c8.1,0,14.6-6.6,14.6-14.6v-35.7c0-8.1-6.6-14.6-14.6-14.6h-35.7c-8.1,0-14.6,6.6-14.6,14.6
		v35.7C350.7,244.9,357.3,251.5,365.4,251.5z M365.7,201.5h35v35h-35V201.5z M365.4,346.5h35.7c8.1,0,14.6-6.6,14.6-14.6v-35.7
		c0-8.1-6.6-14.6-14.6-14.6h-35.7c-8.1,0-14.6,6.6-14.6,14.6v35.7C350.7,339.9,357.3,346.5,365.4,346.5z M365.7,296.5h35v35h-35
		V296.5z M263.5,251.5h35.7c8.1,0,14.6-6.6,14.6-14.6v-35.7c0-8.1-6.6-14.6-14.6-14.6h-35.7c-8.1,0-14.6,6.6-14.6,14.6v35.7
		C248.8,244.9,255.4,251.5,263.5,251.5z M263.8,201.5h35v35h-35V201.5z M95.4,372H59.6c-8.1,0-14.6,6.6-14.6,14.6v35.7
		c0,8.1,6.6,14.6,14.6,14.6h35.7c8.1,0,14.6-6.6,14.6-14.6v-35.7C110,378.6,103.4,372,95.4,372z M95,422H60v-35h35V422z M95.4,186.5
		H59.6c-8.1,0-14.6,6.6-14.6,14.6v35.7c0,8.1,6.6,14.6,14.6,14.6h35.7c8.1,0,14.6-6.6,14.6-14.6v-35.7
		C110,193,103.4,186.5,95.4,186.5z M95,236.5H60v-35h35V236.5z M263.5,344.2h35.7c8.1,0,14.6-6.6,14.6-14.6v-35.7
		c0-8.1-6.6-14.6-14.6-14.6h-35.7c-8.1,0-14.6,6.6-14.6,14.6v35.7C248.8,337.7,255.4,344.2,263.5,344.2z M263.8,294.2h35v35h-35
		V294.2z M423.2,34.3h-32.1V22.8c0-12.6-10.2-22.8-22.8-22.8h-3.4c-12.6,0-22.8,10.2-22.8,22.8v11.5H118.7V22.8
		C118.7,10.2,108.4,0,95.9,0h-3.4C79.8,0,69.6,10.2,69.6,22.8v11.5H37.5C16.8,34.3,0,51.1,0,71.8v402.7C0,495.2,16.8,512,37.5,512
		h385.7c20.7,0,37.5-16.8,37.5-37.5V71.8C460.7,51.1,443.9,34.3,423.2,34.3L423.2,34.3z M357.1,22.8c0-4.3,3.5-7.8,7.8-7.8h3.4
		c4.3,0,7.8,3.5,7.8,7.8v11.5h-19.1V22.8z M84.6,22.8c0-4.3,3.5-7.8,7.8-7.8h3.4c4.3,0,7.8,3.5,7.8,7.8v11.5H84.6L84.6,22.8
		L84.6,22.8z M445.7,474.5c0,12.4-10.1,22.5-22.5,22.5H37.5C25.1,497,15,486.9,15,474.5v0c6.3,4.7,14.1,7.5,22.6,7.5h304.1
		c10,0,19.5-3.9,26.6-11l77.6-77.6V474.5z M360.5,457.4c0.6-2.4,0.9-5,0.9-7.6v-50.1c0-9.4,7.7-17.1,17.1-17.1h50.1
		c2.6,0,5.1-0.3,7.6-0.9L360.5,457.4z M445.7,141.5H126.2c-4.1,0-7.5,3.4-7.5,7.5s3.4,7.5,7.5,7.5h319.6v194.1
		c0,9.4-7.7,17.1-17.1,17.1h-50.1c-17.7,0-32.1,14.4-32.1,32.1v50.1c0,9.4-7.7,17.1-17.1,17.1H37.6C25.1,467,15,456.9,15,444.4v-288
		h81.2c4.1,0,7.5-3.4,7.5-7.5s-3.4-7.5-7.5-7.5H15V71.8c0-12.4,10.1-22.5,22.5-22.5h32.1v22.1c0,12.6,10.2,22.8,22.8,22.8
		c4.1,0,7.5-3.4,7.5-7.5s-3.4-7.5-7.5-7.5c-4.3,0-7.8-3.5-7.8-7.8V49.3h257.5v22.1c0,12.6,10.2,22.8,22.8,22.8
		c4.1,0,7.5-3.4,7.5-7.5s-3.4-7.5-7.5-7.5c-4.3,0-7.8-3.5-7.8-7.8V49.3h66.1c12.4,0,22.5,10.1,22.5,22.5L445.7,141.5z M95.4,279.2
		H59.6c-8.1,0-14.6,6.6-14.6,14.6v35.7c0,8.1,6.6,14.6,14.6,14.6h35.7c8.1,0,14.6-6.6,14.6-14.6v-35.7
		C110,285.8,103.4,279.2,95.4,279.2z M95,329.2H60v-35h35V329.2z M161.6,251.5h35.7c8.1,0,14.6-6.6,14.6-14.6v-35.7
		c0-8.1-6.6-14.6-14.6-14.6h-35.7c-8.1,0-14.6,6.6-14.6,14.6v35.7C146.9,244.9,153.5,251.5,161.6,251.5z M161.9,201.5h35v35h-35
		V201.5z M263.8,422c-0.2-4-3.5-7.1-7.5-7.1c-4.1,0-7.5,3.4-7.5,7.5c0,8.1,6.6,14.6,14.6,14.6h35.7c8.1,0,14.6-6.6,14.6-14.6v-35.7
		c0-8.1-6.6-14.6-14.6-14.6h-35.7c-8.1,0-14.6,6.6-14.6,14.6v10.3c0,4.1,3.4,7.5,7.5,7.5s7.5-3.4,7.5-7.5V387h35v35H263.8z
		 M161.6,344.2h35.7c8.1,0,14.6-6.6,14.6-14.6v-35.7c0-8.1-6.6-14.6-14.6-14.6h-35.7c-8.1,0-14.6,6.6-14.6,14.6v35.7
		C146.9,337.7,153.5,344.2,161.6,344.2z M161.9,294.2h35v35h-35V294.2z M161.6,437h35.7c8.1,0,14.6-6.6,14.6-14.6v-35.7
		c0-8.1-6.6-14.6-14.6-14.6h-35.7c-8.1,0-14.6,6.6-14.6,14.6v35.7C146.9,430.4,153.5,437,161.6,437z M161.9,387h35v35h-35V387z"/>
</g>
</svg>
