<svg xmlns="http://www.w3.org/2000/svg" width="48.856" height="43.895" viewBox="0 0 48.856 43.895"><defs><style>.a{fill:#fff;}</style></defs><g transform="translate(0 0)"><path class="a" d="M246.954,100a.954.954,0,1,0,.954.954A.955.955,0,0,0,246.954,100Zm0,0" transform="translate(-222.526 -90.458)"/><path class="a" d="M80.954,261.908a.954.954,0,1,0-.954-.954A.955.955,0,0,0,80.954,261.908Zm0,0" transform="translate(-72.366 -235.19)"/><path class="a" d="M32.062,0C23.471,0,16.421,5.923,15.875,13.383,7.694,13.793,0,19.693,0,27.672A13.334,13.334,0,0,0,3.721,36.8a5.8,5.8,0,0,1-1.533,5.467.954.954,0,0,0,.675,1.629,10.526,10.526,0,0,0,7.293-2.948,21.745,21.745,0,0,0,6.639,1.039c8.59,0,15.64-5.921,16.186-13.38a21.457,21.457,0,0,0,5.72-1.018,10.526,10.526,0,0,0,7.293,2.948.954.954,0,0,0,.675-1.629,5.8,5.8,0,0,1-1.533-5.467,13.334,13.334,0,0,0,3.721-9.126C48.857,6.022,40.57,0,32.062,0ZM16.794,40.077a19.29,19.29,0,0,1-6.538-1.126.954.954,0,0,0-1.057.242,8.61,8.61,0,0,1-4.282,2.541,7.717,7.717,0,0,0,.582-5.68.952.952,0,0,0-.233-.4,11.467,11.467,0,0,1-3.357-7.98c0-6.724,6.817-12.4,14.886-12.4,7.62,0,14.313,5.3,14.313,12.4,0,6.84-6.421,12.4-14.313,12.4Zm26.8-17.784a.957.957,0,0,0-.233.4,7.717,7.717,0,0,0,.582,5.68,8.607,8.607,0,0,1-4.282-2.541.955.955,0,0,0-1.057-.242,18.8,18.8,0,0,1-5.622,1.1,13.659,13.659,0,0,0-5.156-9.518H40.268a.954.954,0,0,0,0-1.908H24.89a17.8,17.8,0,0,0-7.1-1.88c.548-6.409,6.741-11.479,14.274-11.479,8.069,0,14.886,5.681,14.886,12.4a11.467,11.467,0,0,1-3.357,7.98Zm0,0"/><path class="a" d="M132.978,260H120.954a.954.954,0,1,0,0,1.908h12.023a.954.954,0,0,0,0-1.908Zm0,0" transform="translate(-108.549 -235.19)"/><path class="a" d="M96.794,320H80.954a.954.954,0,0,0,0,1.908h15.84a.954.954,0,1,0,0-1.908Zm0,0" transform="translate(-72.366 -289.465)"/><path class="a" d="M298.978,100H286.954a.954.954,0,0,0,0,1.908h12.023a.954.954,0,0,0,0-1.908Zm0,0" transform="translate(-258.709 -90.458)"/></g></svg>