<?xml version="1.0" encoding="utf-8"?>
<!-- Generator: Adobe Illustrator 24.0.2, SVG Export Plug-In . SVG Version: 6.00 Build 0)  -->
<svg version="1.1" id="Calque_1" xmlns="http://www.w3.org/2000/svg" xmlns:xlink="http://www.w3.org/1999/xlink" x="0px" y="0px"
	 viewBox="0 0 457.3 512" style="enable-background:new 0 0 457.3 512;" xml:space="preserve">
<style type="text/css">
	.st0{fill:#D3422A;}
</style>
<g id="Clip">
	<path class="st0" d="M23.9,487.9c31.9,32.1,83.7,32.1,115.6,0c0,0,0,0,0,0l282.6-284.5C468.6,157.2,469,82,423.1,35.3
		s-120.6-47.1-167-0.9c-0.3,0.3-0.6,0.6-0.9,0.9L68.9,222.8l12.9,12.9L268.1,48.2c38.8-39.5,102-40,141.3-1s39.7,102.7,0.9,142.2
		c-0.3,0.3-0.6,0.6-0.9,1L126.7,475c-24.8,25-65.1,25-89.9,0s-24.8-65.5,0-90.5l244.1-245.7c10.7-10.6,28-10.5,38.5,0.3
		c10.4,10.7,10.4,27.8,0,38.5L171.7,326.2l12.8,12.9l147.8-148.7c17.7-17.9,17.5-46.9-0.3-64.7c-17.7-17.7-46.2-17.7-64,0
		L23.9,371.5C-8,403.6-8,455.8,23.9,487.9C23.9,487.9,23.9,487.9,23.9,487.9L23.9,487.9z"/>
</g>
</svg>
