<?xml version="1.0" encoding="utf-8"?>
<!-- Generator: Adobe Illustrator 24.0.2, SVG Export Plug-In . SVG Version: 6.00 Build 0)  -->
<svg version="1.1" id="Calque_1" xmlns="http://www.w3.org/2000/svg" xmlns:xlink="http://www.w3.org/1999/xlink" x="0px" y="0px"
	 viewBox="0 0 40.46 31.79" style="enable-background:new 0 0 40.46 31.79;" xml:space="preserve">
<style type="text/css">
	.st0{fill:#FFFFFF;}
</style>
<path id="Tracé_35" class="st0" d="M36.84,31.79c0.87,0.01,1.72-0.31,2.37-0.89L27.75,19.43c-0.27,0.2-0.54,0.39-0.79,0.57
	c-0.86,0.63-1.56,1.12-2.08,1.48c-0.68,0.42-1.39,0.79-2.14,1.08c-0.78,0.35-1.63,0.53-2.48,0.55h-0.05
	c-0.86-0.02-1.7-0.21-2.49-0.55c-0.74-0.3-1.46-0.66-2.13-1.08c-0.53-0.35-1.23-0.85-2.08-1.48c-0.24-0.17-0.51-0.37-0.79-0.57
	L1.26,30.89c0.65,0.59,1.5,0.91,2.37,0.89L36.84,31.79L36.84,31.79z"/>
<path id="Tracé_36" class="st0" d="M2.28,12.22C1.44,11.66,0.68,11,0,10.25v17.43l10.1-10.1C8.08,16.18,5.47,14.39,2.28,12.22
	L2.28,12.22z"/>
<path id="Tracé_37" class="st0" d="M38.2,12.22c-3.07,2.08-5.69,3.87-7.84,5.38l10.1,10.1V10.25C39.79,11,39.03,11.66,38.2,12.22
	L38.2,12.22z"/>
<path id="Tracé_38" class="st0" d="M36.84,0.01H3.62C2.59-0.05,1.59,0.38,0.94,1.18C0.3,2.02-0.04,3.05,0,4.11
	C0.08,5.25,0.51,6.33,1.25,7.2c0.73,1.01,1.62,1.89,2.64,2.61c0.51,0.36,2.05,1.43,4.63,3.22c1.39,0.96,2.6,1.8,3.64,2.53
	c0.88,0.62,1.65,1.15,2.27,1.6c0.07,0.05,0.19,0.13,0.34,0.24s0.37,0.26,0.62,0.45c0.49,0.35,0.89,0.64,1.22,0.85
	s0.71,0.46,1.17,0.74c0.41,0.25,0.85,0.45,1.3,0.61c0.36,0.13,0.74,0.19,1.13,0.2h0.05c0.38-0.01,0.77-0.07,1.13-0.2
	c0.45-0.16,0.89-0.36,1.3-0.61c0.46-0.27,0.85-0.52,1.17-0.74s0.73-0.5,1.22-0.85c0.25-0.18,0.46-0.33,0.62-0.45
	s0.26-0.19,0.34-0.24c0.49-0.34,1.25-0.87,2.29-1.59c1.87-1.3,4.63-3.22,8.27-5.76c1.08-0.75,2.01-1.69,2.75-2.78
	c0.71-1,1.09-2.19,1.11-3.42c0.01-0.96-0.38-1.89-1.07-2.55C38.72,0.38,37.8-0.01,36.84,0.01z"/>
</svg>
